<svg width="19" height="18" viewBox="0 0 19 18" fill="none" xmlns="http://www.w3.org/2000/svg">
<path fill-rule="evenodd" clip-rule="evenodd" d="M9.00199 0.000755274C8.81816 -0.00784822 8.63138 0.0570857 8.48955 0.196091L0.205845 8.31487C-0.0643396 8.57968 -0.069174 9.01322 0.195039 9.28399C0.460072 9.55559 0.895256 9.56044 1.16628 9.29482L2.02235 8.45578V16.6426C2.02235 17.3834 2.61669 17.9854 3.35452 17.9977C3.36772 17.9984 3.38102 17.9988 3.39441 17.9988H6.32559C6.33783 17.9988 6.34999 17.9985 6.36208 17.9979H7.65584V13.4842H10.3956V17.9979L11.7168 17.9979L11.7508 17.9979L14.6479 17.9979C14.6557 17.9979 14.6634 17.9977 14.6711 17.9975V17.9979C15.4196 17.9979 16.0263 17.3911 16.0263 16.6426V8.49956L16.8377 9.29481C17.1087 9.56044 17.5439 9.55559 17.809 9.28399C18.0732 9.01322 18.0683 8.57968 17.7981 8.31487L9.51445 0.196091C9.37261 0.0570828 9.18583 -0.00785098 9.00199 0.000755274ZM9.002 1.6151L3.37758 7.12754V16.6102L3.39441 16.61H6.30062V13.0953C6.30062 12.7124 6.51577 12.3798 6.83175 12.2118C6.94194 12.1383 7.07435 12.0954 7.21677 12.0954H7.28731L7.30062 12.0953H7.65584V12.0954H10.3956V12.0953H10.7508L10.7642 12.0954H10.7779C10.8227 12.0954 10.8666 12.0996 10.909 12.1077C11.3861 12.1835 11.7508 12.5968 11.7508 13.0953V16.609H14.6479C14.6557 16.609 14.6634 16.6092 14.6711 16.6094V7.17132L9.002 1.6151Z" fill="#0C152E"/>
</svg>
