<svg width="20" height="20" viewBox="0 0 20 20" fill="none" xmlns="http://www.w3.org/2000/svg">
<mask id="path-1-inside-1_1_1793" fill="white">
<path d="M2.42602 10.3115L9.29289 17.1783C9.68342 17.5689 10.3166 17.5689 10.7071 17.1783L17.574 10.3115C19.4753 8.4101 19.4753 5.32738 17.574 3.42602C15.6726 1.52466 12.5899 1.52466 10.6885 3.42602L10 4.11456L9.31146 3.42602C7.4101 1.52466 4.32738 1.52466 2.42602 3.42602C0.52466 5.32738 0.52466 8.4101 2.42602 10.3115Z"/>
</mask>
<path d="M2.42602 10.3115L3.34526 9.39222L2.42602 10.3115ZM17.574 10.3115L16.6547 9.39222L17.574 10.3115ZM10.6885 3.42602L9.76931 2.50678V2.50678L10.6885 3.42602ZM10 4.11456L9.08076 5.0338L10 5.95304L10.9192 5.0338L10 4.11456ZM9.31146 3.42602L10.2307 2.50678V2.50678L9.31146 3.42602ZM9.29289 17.1783L8.37365 18.0976L9.29289 17.1783ZM10.7071 17.1783L11.6263 18.0976L10.7071 17.1783ZM16.6547 4.34526C18.0484 5.73894 18.0484 7.99854 16.6547 9.39222L18.4932 11.2307C20.9023 8.82165 20.9023 4.91582 18.4932 2.50678L16.6547 4.34526ZM11.6078 4.34526C13.0015 2.95158 15.2611 2.95158 16.6547 4.34526L18.4932 2.50678C16.0842 0.0977393 12.1783 0.0977393 9.76931 2.50678L11.6078 4.34526ZM10.9192 5.0338L11.6078 4.34526L9.76931 2.50678L9.08076 3.19533L10.9192 5.0338ZM8.39222 4.34526L9.08076 5.0338L10.9192 3.19533L10.2307 2.50678L8.39222 4.34526ZM3.34526 4.34526C4.73894 2.95158 6.99854 2.95158 8.39222 4.34526L10.2307 2.50678C7.82165 0.0977397 3.91582 0.0977397 1.50678 2.50678L3.34526 4.34526ZM3.34526 9.39222C1.95158 7.99854 1.95158 5.73894 3.34526 4.34526L1.50678 2.50678C-0.902261 4.91582 -0.902261 8.82165 1.50678 11.2307L3.34526 9.39222ZM10.2121 16.2591L3.34526 9.39222L1.50678 11.2307L8.37365 18.0976L10.2121 16.2591ZM16.6547 9.39222L9.78787 16.2591L11.6263 18.0976L18.4932 11.2307L16.6547 9.39222ZM8.37365 18.0976C9.27186 18.9958 10.7281 18.9958 11.6263 18.0976L9.78787 16.2591C9.90502 16.1419 10.095 16.1419 10.2121 16.2591L8.37365 18.0976Z" fill="#8A8CA2" mask="url(#path-1-inside-1_1_1793)"/>
</svg>
