<svg width="16" height="18" viewBox="0 0 16 18" fill="none" xmlns="http://www.w3.org/2000/svg">
<path fill-rule="evenodd" clip-rule="evenodd" d="M2 12.45C2.71797 12.45 3.3 11.868 3.3 11.15V6.15002C3.3 3.55428 5.40426 1.45002 8 1.45002C10.5957 1.45002 12.7 3.55428 12.7 6.15002V11.15C12.7 11.868 13.282 12.45 14 12.45C14.3866 12.45 14.7 12.7634 14.7 13.15C14.7 13.5366 14.3866 13.85 14 13.85H2C1.6134 13.85 1.3 13.5366 1.3 13.15C1.3 12.7634 1.6134 12.45 2 12.45ZM2 11.15V9.85002V6.15002C2 2.8363 4.68629 0.150024 8 0.150024C11.3137 0.150024 14 2.8363 14 6.15002V9.85002V11.15C15.1046 11.15 16 12.0454 16 13.15C16 14.2546 15.1046 15.15 14 15.15H10.65C10.65 16.6136 9.46355 17.8 8 17.8C6.53645 17.8 5.35 16.6136 5.35 15.15H2C0.895432 15.15 0 14.2546 0 13.15C0 12.0454 0.895432 11.15 2 11.15ZM6.65 15.15C6.65 15.8956 7.25442 16.5 8 16.5C8.74558 16.5 9.35 15.8956 9.35 15.15H6.65Z" fill="#0C152E"/>
</svg>
