<svg width="18" height="18" viewBox="0 0 18 18" fill="none" xmlns="http://www.w3.org/2000/svg">
<path fill-rule="evenodd" clip-rule="evenodd" d="M5.80006 4.5C5.80006 2.73269 7.23274 1.3 9.00005 1.3C10.7674 1.3 12.2 2.73269 12.2 4.5C12.2 6.26731 10.7674 7.69999 9.00005 7.69999C7.23274 7.69999 5.80006 6.26731 5.80006 4.5ZM9.00005 0C6.51477 0 4.50006 2.01472 4.50006 4.5C4.50006 6.98528 6.51477 8.99999 9.00005 8.99999C11.4853 8.99999 13.5 6.98528 13.5 4.5C13.5 2.01472 11.4853 0 9.00005 0ZM1.54657 16.4498C1.51974 16.5328 1.49507 16.6163 1.47258 16.7001H16.5275C16.505 16.6163 16.4804 16.5328 16.4535 16.4498C16.1288 15.4449 15.4827 14.4879 14.5318 13.6955C13.0984 12.501 11.1111 11.8001 9.00005 11.8001C6.889 11.8001 4.90173 12.501 3.46833 13.6955C2.51744 14.4879 1.87131 15.4449 1.54657 16.4498ZM0.0796965 17.0043C0.131592 16.6814 0.208527 16.3627 0.309555 16.0501C0.715885 14.7927 1.51194 13.6336 2.63609 12.6968C4.32392 11.2902 6.6131 10.5001 9.00005 10.5001C11.387 10.5001 13.6762 11.2902 15.364 12.6968C16.4882 13.6336 17.2842 14.7927 17.6905 16.0501C17.7916 16.3627 17.8685 16.6814 17.9204 17.0043C18.008 17.5496 17.5523 18.0001 17 18.0001H1.00006C0.447771 18.0001 -0.00794416 17.5496 0.0796965 17.0043Z" fill="#0C152E"/>
</svg>
