<svg width="20" height="20" viewBox="0 0 20 20" fill="none" xmlns="http://www.w3.org/2000/svg">
<path d="M4 16.5129H3.35V16.5129L4 16.5129ZM4.23634 17.3042L4.78049 16.9487L4.78049 16.9487L4.23634 17.3042ZM6.38822 17.7116L6.75887 18.2456L6.75887 18.2456L6.38822 17.7116ZM10.0849 15.1455L10.4505 14.6081C10.2281 14.4567 9.93532 14.4581 9.71427 14.6116L10.0849 15.1455ZM13.8909 17.7349L13.5253 18.2723L13.5253 18.2723L13.8909 17.7349ZM14.0455 2.65C14.9684 2.65 15.6175 3.39845 15.6175 4.2049H16.9175C16.9175 2.73205 15.7369 1.35 14.0455 1.35V2.65ZM6.22195 2.65H14.0455V1.35H6.22195V2.65ZM4.65 4.2049C4.65 3.39845 5.29902 2.65 6.22195 2.65V1.35C4.53055 1.35 3.35 2.73205 3.35 4.2049H4.65ZM4.65 16.5129V4.2049H3.35V16.5129H4.65ZM4.78049 16.9487C4.69345 16.8154 4.65 16.6639 4.65 16.5129L3.35 16.5129C3.35 16.9138 3.46558 17.3129 3.69218 17.6597L4.78049 16.9487ZM6.01757 17.1776C5.59555 17.4706 5.03231 17.3341 4.78049 16.9487L3.69218 17.6597C4.33092 18.6374 5.7151 18.9701 6.75887 18.2456L6.01757 17.1776ZM9.71427 14.6116L6.01757 17.1776L6.75887 18.2456L10.4556 15.6795L9.71427 14.6116ZM14.2565 17.1975L10.4505 14.6081L9.71929 15.6829L13.5253 18.2723L14.2565 17.1975ZM14.7567 17.35C14.5721 17.35 14.3981 17.2938 14.2565 17.1975L13.5253 18.2723C13.8802 18.5138 14.3085 18.65 14.7567 18.65V17.35ZM15.6175 16.5282C15.6175 16.9332 15.2836 17.35 14.7567 17.35V18.65C16.0586 18.65 16.9175 17.5927 16.9175 16.5282H15.6175ZM15.6175 4.2049V16.5282H16.9175V4.2049H15.6175Z" fill="#0C152E"/>
</svg>
