<svg width="20" height="20" viewBox="0 0 20 20" fill="none" xmlns="http://www.w3.org/2000/svg">
<path fill-rule="evenodd" clip-rule="evenodd" d="M17.2337 14.6768C17.7333 15.1533 17.7333 15.9258 17.2337 16.4023C16.7342 16.8788 15.9242 16.8788 15.4246 16.4023L10.521 11.7254L5.43574 16.5755C4.93617 17.052 4.1262 17.052 3.62663 16.5755C3.12706 16.099 3.12706 15.3265 3.62663 14.8501L8.71189 10L3.62663 5.14993C3.12706 4.67346 3.12706 3.90096 3.62663 3.42449C4.1262 2.94802 4.93617 2.94802 5.43574 3.42449L10.521 8.27456L15.4246 3.59772C15.9242 3.12125 16.7342 3.12125 17.2337 3.59772C17.7333 4.07419 17.7333 4.84669 17.2337 5.32316L12.3301 10L17.2337 14.6768Z" fill="#4070F4"/>
</svg>
