<svg width="20" height="20" viewBox="0 0 20 20" fill="none" xmlns="http://www.w3.org/2000/svg">
<path fill-rule="evenodd" clip-rule="evenodd" d="M2.3 9.34702C2.3 13.1485 5.65346 16.394 10 16.394C10.6821 16.394 11.3415 16.313 11.9682 16.1618C12.2815 16.0862 12.5605 16.1226 12.7276 16.1557C12.911 16.192 13.082 16.2501 13.2261 16.3073C13.5143 16.4217 13.8159 16.5815 14.0943 16.7438C14.2157 16.8146 14.3395 16.8899 14.4638 16.9679C14.4625 16.8621 14.4625 16.7576 14.4643 16.6555C14.4695 16.3536 14.49 16.0247 14.5481 15.7248C14.5772 15.5745 14.6226 15.395 14.6993 15.2145C14.7713 15.0453 14.9084 14.7852 15.1697 14.5683C16.7415 13.2636 17.7 11.3973 17.7 9.34702C17.7 5.54553 14.3465 2.3 10 2.3C5.65346 2.3 2.3 5.54553 2.3 9.34702ZM16 15.5686C17.8412 14.0402 19 11.8191 19 9.34702C19 4.73709 14.9706 1 10 1C5.02944 1 1 4.73709 1 9.34702C1 13.9569 5.02944 17.694 10 17.694C10.7853 17.694 11.5471 17.6008 12.2732 17.4255C12.7039 17.3215 14.0454 18.2144 14.995 18.9019C15.3615 19.1672 15.8957 18.8599 15.8524 18.4096C15.7465 17.3091 15.6736 15.8395 16 15.5686Z" fill="#8A8CA2"/>
</svg>
