<svg width="16" height="14" viewBox="0 0 16 14" fill="none" xmlns="http://www.w3.org/2000/svg">
<path fill-rule="evenodd" clip-rule="evenodd" d="M0.65 0C0.291015 0 0 0.291015 0 0.65C0 1.00898 0.291015 1.3 0.65 1.3H15.35C15.709 1.3 16 1.00898 16 0.65C16 0.291015 15.709 0 15.35 0H0.65ZM0.65 4C0.291015 4 0 4.29102 0 4.65C0 5.00899 0.291015 5.3 0.65 5.3H15.35C15.709 5.3 16 5.00899 16 4.65C16 4.29102 15.709 4 15.35 4H0.65ZM0 8.65C0 8.29101 0.291015 8 0.65 8H9.35C9.70899 8 10 8.29101 10 8.65C10 9.00898 9.70899 9.3 9.35 9.3H0.649999C0.291014 9.3 0 9.00898 0 8.65ZM0.65 12C0.291015 12 0 12.291 0 12.65C0 13.009 0.291015 13.3 0.65 13.3H4.35C4.70899 13.3 5 13.009 5 12.65C5 12.291 4.70899 12 4.35 12H0.65Z" fill="#0C152E"/>
</svg>
