<svg width="20" height="18" viewBox="0 0 20 18" fill="none" xmlns="http://www.w3.org/2000/svg">
<path fill-rule="evenodd" clip-rule="evenodd" d="M3.57184 7.20946C4.23367 4.31435 6.83946 2.14998 9.95559 2.14998C13.2302 2.14998 15.939 4.53882 16.4246 7.65438L15.2145 6.82671C14.9182 6.62404 14.5137 6.69996 14.311 6.99626C14.1083 7.29257 14.1843 7.69706 14.4806 7.89973L16.7921 9.48075C17.1946 9.75603 17.7456 9.637 17.9986 9.22015L19.3424 7.00586C19.5287 6.69897 19.4309 6.2992 19.124 6.11295C18.8171 5.9267 18.4173 6.02451 18.2311 6.3314L17.6745 7.24851C17.0073 3.60689 13.8027 0.849976 9.95559 0.849976C6.22431 0.849976 3.09952 3.44215 2.30453 6.91975C2.22453 7.26971 2.44337 7.61826 2.79333 7.69826C3.14329 7.77826 3.49184 7.55942 3.57184 7.20946ZM9.95559 16.1672C6.87785 16.1672 4.29996 14.057 3.59796 11.2166L4.82322 12.0882C5.11574 12.2963 5.52156 12.2279 5.72966 11.9354C5.93775 11.6428 5.86931 11.237 5.57679 11.0289L3.17723 9.32192C2.75086 9.01861 2.1543 9.16887 1.92248 9.63797L0.704685 12.1022C0.545642 12.4241 0.677608 12.8139 0.99944 12.9729C1.32127 13.132 1.7111 13 1.87014 12.6782L2.37062 11.6655C3.26092 15.0073 6.32161 17.4672 9.95559 17.4672C13.6102 17.4672 16.6828 14.9805 17.5546 11.611C17.6445 11.2635 17.4357 10.9089 17.0882 10.8189C16.7406 10.729 16.386 10.9379 16.2961 11.2854C15.5701 14.0911 13.0075 16.1672 9.95559 16.1672Z" fill="#8A8CA2"/>
</svg>
