<svg width="18" height="18" viewBox="0 0 18 18" fill="none" xmlns="http://www.w3.org/2000/svg">
<path fill-rule="evenodd" clip-rule="evenodd" d="M6.42801 1.15385V2.21044C5.59332 2.49982 4.8199 2.92841 4.14203 3.47425L3.13892 2.92169C2.58167 2.61473 1.87639 2.79995 1.55026 3.3389L0.164932 5.62823C0.16142 5.63409 0.159663 5.63702 0.15793 5.63996C0.156198 5.6429 0.154489 5.64586 0.151071 5.65176C-0.167315 6.20733 0.0339553 6.91075 0.600621 7.2229L1.56452 7.75387C1.49014 8.16255 1.4524 8.57905 1.4524 9C1.4524 9.42095 1.49014 9.83745 1.56452 10.2461L0.600621 10.7771C0.588564 10.7838 0.588564 10.7838 0.576617 10.7907C0.0176066 11.1158 -0.166711 11.8237 0.164932 12.3718L1.55026 14.6611C1.87639 15.2001 2.58167 15.3853 3.13892 15.0783L4.14203 14.5258C4.8199 15.0716 5.59332 15.5002 6.42801 15.7896V16.8462C6.42801 17.4834 6.95492 18 7.60491 18H10.3951C11.0451 18 11.572 17.4834 11.572 16.8462V15.7896C12.4067 15.5002 13.1801 15.0716 13.858 14.5258L14.8611 15.0783C15.4183 15.3853 16.1236 15.2001 16.4497 14.6611L17.8351 12.3718C17.8397 12.3641 17.8412 12.3615 17.8437 12.3573C17.845 12.355 17.8466 12.3523 17.8489 12.3482C18.1673 11.7927 17.966 11.0892 17.3994 10.7771L16.4355 10.2461C16.5099 9.83745 16.5476 9.42095 16.5476 9C16.5476 8.57905 16.5099 8.16255 16.4355 7.75387L17.3994 7.2229C17.4114 7.2162 17.4114 7.2162 17.4234 7.20931C17.9824 6.88416 18.1667 6.17629 17.8351 5.62823L16.4497 3.3389C16.1236 2.79995 15.4183 2.61473 14.8611 2.92169L13.858 3.47425C13.1801 2.92841 12.4067 2.49982 11.572 2.21044V1.15385C11.572 0.516595 11.0451 0 10.3951 0H7.60491C6.95492 0 6.42801 0.516595 6.42801 1.15385ZM7.84028 2.71821V1.38459H10.1597V2.71821C10.1597 3.02981 10.372 3.30301 10.6785 3.3857C11.6598 3.65053 12.5535 4.14571 13.2822 4.82126C13.5069 5.02957 13.8436 5.07032 14.1132 4.92181L15.3524 4.2392L16.4975 6.13148L15.2888 6.79731C15.0094 6.95119 14.8708 7.27018 14.951 7.57431C15.073 8.03639 15.1353 8.51399 15.1353 8.99998C15.1353 9.48596 15.073 9.96356 14.951 10.4256C14.8708 10.7298 15.0094 11.0488 15.2888 11.2026L16.4975 11.8685L15.3524 13.7608L14.1132 13.0781C13.8436 12.9296 13.5069 12.9704 13.2822 13.1787C12.5535 13.8542 11.6598 14.3494 10.6785 14.6143C10.372 14.6969 10.1597 14.9701 10.1597 15.2817V16.6154H7.84028V15.2817C7.84028 14.9701 7.62796 14.6969 7.32154 14.6143C6.34016 14.3494 5.44646 13.8542 4.71782 13.1787C4.49314 12.9704 4.15635 12.9296 3.88675 13.0781L2.64756 13.7608L1.5025 11.8685L2.71122 11.2026C2.99057 11.0488 3.12922 10.7298 3.04895 10.4256C2.92699 9.96356 2.86467 9.48596 2.86467 8.99998C2.86467 8.51399 2.92699 8.03639 3.04895 7.57431C3.12922 7.27018 2.99057 6.95119 2.71122 6.79731L1.5025 6.13148L2.64756 4.2392L3.88675 4.92181C4.15635 5.07032 4.49314 5.02957 4.71782 4.82126C5.44646 4.14571 6.34016 3.65053 7.32154 3.3857C7.62796 3.30301 7.84028 3.02981 7.84028 2.71821Z" fill="#0C152E"/>
<path fill-rule="evenodd" clip-rule="evenodd" d="M12.5 9C12.5 7.067 10.933 5.5 9 5.5C7.067 5.5 5.5 7.067 5.5 9C5.5 10.933 7.067 12.5 9 12.5C10.933 12.5 12.5 10.933 12.5 9ZM7.01422 8.9999C7.01422 7.90317 7.90329 7.0141 9.00002 7.0141C10.0967 7.0141 10.9858 7.90317 10.9858 8.9999C10.9858 10.0966 10.0967 10.9857 9.00002 10.9857C7.90329 10.9857 7.01422 10.0966 7.01422 8.9999Z" fill="#0C152E"/>
</svg>
