<?xml version="1.0" encoding="UTF-8" standalone="no"?><svg xmlns="http://www.w3.org/2000/svg" xmlns:xlink="http://www.w3.org/1999/xlink" contentScriptType="application/ecmascript" contentStyleType="text/css" height="510px" preserveAspectRatio="none" style="width:1988px;height:510px;" version="1.1" viewBox="0 0 1988 510" width="1988px" zoomAndPan="magnify"><defs><filter height="300%" id="fp4hdxha4fbs8" width="300%" x="-1" y="-1"><feGaussianBlur result="blurOut" stdDeviation="2.0"/><feColorMatrix in="blurOut" result="blurOut2" type="matrix" values="0 0 0 0 0 0 0 0 0 0 0 0 0 0 0 0 0 0 .4 0"/><feOffset dx="4.0" dy="4.0" in="blurOut2" result="blurOut3"/><feBlend in="SourceGraphic" in2="blurOut3" mode="normal"/></filter></defs><g><!--MD5=[ead227b1f15782be967ad12754f7a231]
entity Sender--><ellipse cx="31" cy="121.5" fill="#FEFECE" filter="url(#fp4hdxha4fbs8)" rx="8" ry="8" style="stroke: #A80036; stroke-width: 2.0;"/><path d="M31,129.5 L31,156.5 M18,137.5 L44,137.5 M31,156.5 L18,171.5 M31,156.5 L44,171.5 " fill="none" filter="url(#fp4hdxha4fbs8)" style="stroke: #A80036; stroke-width: 2.0;"/><text fill="#000000" font-family="sans-serif" font-size="14" lengthAdjust="spacingAndGlyphs" textLength="50" x="6" y="191.4951">Sender</text><!--MD5=[4123fcd7795bcaf721e2249b804eb70c]
entity Recipient--><ellipse cx="1543" cy="121.5" fill="#FEFECE" filter="url(#fp4hdxha4fbs8)" rx="8" ry="8" style="stroke: #A80036; stroke-width: 2.0;"/><path d="M1543,129.5 L1543,156.5 M1530,137.5 L1556,137.5 M1543,156.5 L1530,171.5 M1543,156.5 L1556,171.5 " fill="none" filter="url(#fp4hdxha4fbs8)" style="stroke: #A80036; stroke-width: 2.0;"/><text fill="#000000" font-family="sans-serif" font-size="14" lengthAdjust="spacingAndGlyphs" textLength="65" x="1510.5" y="191.4951">Recipient</text><!--MD5=[8e76afe5eb33396eb16e65cb9217ddc8]
entity Carrier--><ellipse cx="959" cy="121.5" fill="#FEFECE" filter="url(#fp4hdxha4fbs8)" rx="8" ry="8" style="stroke: #A80036; stroke-width: 2.0;"/><path d="M959,129.5 L959,156.5 M946,137.5 L972,137.5 M959,156.5 L946,171.5 M959,156.5 L972,171.5 " fill="none" filter="url(#fp4hdxha4fbs8)" style="stroke: #A80036; stroke-width: 2.0;"/><text fill="#000000" font-family="sans-serif" font-size="14" lengthAdjust="spacingAndGlyphs" textLength="45" x="936.5" y="191.4951">Carrier</text><!--MD5=[993ca174be86879988fb14a1259d1b3a]
entity initnode--><polygon fill="#FEFECE" filter="url(#fp4hdxha4fbs8)" points="271,75,281,65,409,65,409,231.0781,399,241.0781,271,241.0781,271,75" style="stroke: #000000; stroke-width: 1.5;"/><line style="stroke: #000000; stroke-width: 1.5;" x1="399" x2="408" y1="75" y2="66"/><line style="stroke: #000000; stroke-width: 1.5;" x1="271" x2="399" y1="75" y2="75"/><line style="stroke: #000000; stroke-width: 1.5;" x1="399" x2="399" y1="75" y2="241.0781"/><text fill="#000000" font-family="sans-serif" font-size="14" font-weight="bold" lengthAdjust="spacingAndGlyphs" textLength="53" x="286" y="97.9951">Packet</text><line style="stroke: #000000; stroke-width: 1.0;" x1="271" x2="399" y1="101.2969" y2="101.2969"/><line style="stroke: #000000; stroke-width: 1.0;" x1="399" x2="409" y1="101.2969" y2="91.2969"/><text fill="#000000" font-family="sans-serif" font-size="14" lengthAdjust="spacingAndGlyphs" textLength="57" x="292" y="118.292">Account</text><line style="stroke: #000000; stroke-width: 1.0; stroke-dasharray: 1.0,2.0;" x1="271" x2="399" y1="125.5938" y2="125.5938"/><line style="stroke: #000000; stroke-width: 1.0; stroke-dasharray: 1.0,2.0;" x1="399" x2="409" y1="125.5938" y2="115.5938"/><text fill="#000000" font-family="sans-serif" font-size="14" lengthAdjust="spacingAndGlyphs" textLength="14" x="292" y="142.5889">ID</text><text fill="#000000" font-family="sans-serif" font-size="14" lengthAdjust="spacingAndGlyphs" textLength="0" x="296" y="158.8857"/><line style="stroke: #000000; stroke-width: 1.0;" x1="271" x2="399" y1="166.1875" y2="166.1875"/><line style="stroke: #000000; stroke-width: 1.0;" x1="399" x2="409" y1="166.1875" y2="156.1875"/><text fill="#000000" font-family="sans-serif" font-size="14" lengthAdjust="spacingAndGlyphs" textLength="21" x="292" y="183.1826">IoT</text><line style="stroke: #000000; stroke-width: 1.0; stroke-dasharray: 1.0,2.0;" x1="271" x2="399" y1="190.4844" y2="190.4844"/><line style="stroke: #000000; stroke-width: 1.0; stroke-dasharray: 1.0,2.0;" x1="399" x2="409" y1="190.4844" y2="180.4844"/><text fill="#000000" font-family="sans-serif" font-size="14" lengthAdjust="spacingAndGlyphs" textLength="81" x="292" y="207.4795">Lightsensor</text><text fill="#000000" font-family="sans-serif" font-size="14" lengthAdjust="spacingAndGlyphs" textLength="86" x="292" y="223.7764">Raspberry Pi</text><!--MD5=[0b70d51bdd028022f5101c089cfdd98e]
entity node--><polygon fill="#FEFECE" filter="url(#fp4hdxha4fbs8)" points="621,26,631,16,803,16,803,279.8594,793,289.8594,621,289.8594,621,26" style="stroke: #000000; stroke-width: 1.5;"/><line style="stroke: #000000; stroke-width: 1.5;" x1="793" x2="802" y1="26" y2="17"/><line style="stroke: #000000; stroke-width: 1.5;" x1="621" x2="793" y1="26" y2="26"/><line style="stroke: #000000; stroke-width: 1.5;" x1="793" x2="793" y1="26" y2="289.8594"/><text fill="#000000" font-family="sans-serif" font-size="14" font-weight="bold" lengthAdjust="spacingAndGlyphs" textLength="53" x="636" y="48.9951">Packet</text><line style="stroke: #000000; stroke-width: 1.0;" x1="621" x2="793" y1="52.2969" y2="52.2969"/><line style="stroke: #000000; stroke-width: 1.0;" x1="793" x2="803" y1="52.2969" y2="42.2969"/><text fill="#000000" font-family="sans-serif" font-size="14" lengthAdjust="spacingAndGlyphs" textLength="57" x="642" y="69.292">Account</text><line style="stroke: #000000; stroke-width: 1.0; stroke-dasharray: 1.0,2.0;" x1="621" x2="793" y1="76.5938" y2="76.5938"/><line style="stroke: #000000; stroke-width: 1.0; stroke-dasharray: 1.0,2.0;" x1="793" x2="803" y1="76.5938" y2="66.5938"/><text fill="#000000" font-family="sans-serif" font-size="14" lengthAdjust="spacingAndGlyphs" textLength="14" x="642" y="93.5889">ID</text><text fill="#000000" font-family="sans-serif" font-size="14" lengthAdjust="spacingAndGlyphs" textLength="50" x="642" y="109.8857">Sender</text><text fill="#000000" font-family="sans-serif" font-size="14" lengthAdjust="spacingAndGlyphs" textLength="65" x="642" y="126.1826">Recipient</text><text fill="#000000" font-family="sans-serif" font-size="14" lengthAdjust="spacingAndGlyphs" textLength="61" x="642" y="142.4795">minTrust</text><text fill="#000000" font-family="sans-serif" font-size="14" lengthAdjust="spacingAndGlyphs" textLength="55" x="642" y="158.7764">Security</text><text fill="#000000" font-family="sans-serif" font-size="14" lengthAdjust="spacingAndGlyphs" textLength="57" x="642" y="175.0732">Postage</text><text fill="#000000" font-family="sans-serif" font-size="14" lengthAdjust="spacingAndGlyphs" textLength="0" x="646" y="191.3701"/><line style="stroke: #000000; stroke-width: 1.0;" x1="621" x2="793" y1="198.6719" y2="198.6719"/><line style="stroke: #000000; stroke-width: 1.0;" x1="793" x2="803" y1="198.6719" y2="188.6719"/><text fill="#000000" font-family="sans-serif" font-size="14" lengthAdjust="spacingAndGlyphs" textLength="21" x="642" y="215.667">IoT</text><line style="stroke: #000000; stroke-width: 1.0; stroke-dasharray: 1.0,2.0;" x1="621" x2="793" y1="222.9688" y2="222.9688"/><line style="stroke: #000000; stroke-width: 1.0; stroke-dasharray: 1.0,2.0;" x1="793" x2="803" y1="222.9688" y2="212.9688"/><text fill="#000000" font-family="sans-serif" font-size="14" lengthAdjust="spacingAndGlyphs" textLength="81" x="642" y="239.9639">Lightsensor</text><text fill="#000000" font-family="sans-serif" font-size="14" lengthAdjust="spacingAndGlyphs" textLength="86" x="642" y="256.2607">Raspberry Pi</text><text fill="#000000" font-family="sans-serif" font-size="14" lengthAdjust="spacingAndGlyphs" textLength="130" x="642" y="272.5576">Secret passphrase</text><!--MD5=[d4bb979d073464a818782f912af531d1]
entity node2--><polygon fill="#FEFECE" filter="url(#fp4hdxha4fbs8)" points="1189,18,1199,8,1371,8,1371,288.1563,1361,298.1563,1189,298.1563,1189,18" style="stroke: #000000; stroke-width: 1.5;"/><line style="stroke: #000000; stroke-width: 1.5;" x1="1361" x2="1370" y1="18" y2="9"/><line style="stroke: #000000; stroke-width: 1.5;" x1="1189" x2="1361" y1="18" y2="18"/><line style="stroke: #000000; stroke-width: 1.5;" x1="1361" x2="1361" y1="18" y2="298.1563"/><text fill="#000000" font-family="sans-serif" font-size="14" font-weight="bold" lengthAdjust="spacingAndGlyphs" textLength="53" x="1204" y="40.9951">Packet</text><line style="stroke: #000000; stroke-width: 1.0;" x1="1189" x2="1361" y1="44.2969" y2="44.2969"/><line style="stroke: #000000; stroke-width: 1.0;" x1="1361" x2="1371" y1="44.2969" y2="34.2969"/><text fill="#000000" font-family="sans-serif" font-size="14" lengthAdjust="spacingAndGlyphs" textLength="57" x="1210" y="61.292">Account</text><line style="stroke: #000000; stroke-width: 1.0; stroke-dasharray: 1.0,2.0;" x1="1189" x2="1361" y1="68.5938" y2="68.5938"/><line style="stroke: #000000; stroke-width: 1.0; stroke-dasharray: 1.0,2.0;" x1="1361" x2="1371" y1="68.5938" y2="58.5938"/><text fill="#000000" font-family="sans-serif" font-size="14" lengthAdjust="spacingAndGlyphs" textLength="14" x="1210" y="85.5889">ID</text><text fill="#000000" font-family="sans-serif" font-size="14" lengthAdjust="spacingAndGlyphs" textLength="50" x="1210" y="101.8857">Sender</text><text fill="#000000" font-family="sans-serif" font-size="14" lengthAdjust="spacingAndGlyphs" textLength="65" x="1210" y="118.1826">Recipient</text><text fill="#000000" font-family="sans-serif" font-size="14" lengthAdjust="spacingAndGlyphs" textLength="45" x="1210" y="134.4795">Carrier</text><text fill="#000000" font-family="sans-serif" font-size="14" lengthAdjust="spacingAndGlyphs" textLength="61" x="1210" y="150.7764">minTrust</text><text fill="#000000" font-family="sans-serif" font-size="14" lengthAdjust="spacingAndGlyphs" textLength="55" x="1210" y="167.0732">Security</text><text fill="#000000" font-family="sans-serif" font-size="14" lengthAdjust="spacingAndGlyphs" textLength="57" x="1210" y="183.3701">Postage</text><text fill="#000000" font-family="sans-serif" font-size="14" lengthAdjust="spacingAndGlyphs" textLength="0" x="1214" y="199.667"/><line style="stroke: #000000; stroke-width: 1.0;" x1="1189" x2="1361" y1="206.9688" y2="206.9688"/><line style="stroke: #000000; stroke-width: 1.0;" x1="1361" x2="1371" y1="206.9688" y2="196.9688"/><text fill="#000000" font-family="sans-serif" font-size="14" lengthAdjust="spacingAndGlyphs" textLength="21" x="1210" y="223.9639">IoT</text><line style="stroke: #000000; stroke-width: 1.0; stroke-dasharray: 1.0,2.0;" x1="1189" x2="1361" y1="231.2656" y2="231.2656"/><line style="stroke: #000000; stroke-width: 1.0; stroke-dasharray: 1.0,2.0;" x1="1361" x2="1371" y1="231.2656" y2="221.2656"/><text fill="#000000" font-family="sans-serif" font-size="14" lengthAdjust="spacingAndGlyphs" textLength="81" x="1210" y="248.2607">Lightsensor</text><text fill="#000000" font-family="sans-serif" font-size="14" lengthAdjust="spacingAndGlyphs" textLength="86" x="1210" y="264.5576">Raspberry Pi</text><text fill="#000000" font-family="sans-serif" font-size="14" lengthAdjust="spacingAndGlyphs" textLength="130" x="1210" y="280.8545">Secret passphrase</text><ellipse cx="1110.1565" cy="393.6313" fill="#FEFECE" filter="url(#fp4hdxha4fbs8)" rx="61.1565" ry="14.6313" style="stroke: #A80036; stroke-width: 1.5;"/><text fill="#000000" font-family="sans-serif" font-size="14" lengthAdjust="spacingAndGlyphs" textLength="83" x="1068.6565" y="398.2797">Send Alarm!</text><ellipse cx="1518.2471" cy="393.4494" fill="#FEFECE" filter="url(#fp4hdxha4fbs8)" rx="70.2471" ry="16.4494" style="stroke: #A80036; stroke-width: 1.5;"/><text fill="#000000" font-family="sans-serif" font-size="14" lengthAdjust="spacingAndGlyphs" textLength="107" x="1464.7471" y="398.0979">Transport failed</text><ellipse cx="1768.7901" cy="393.258" fill="#FEFECE" filter="url(#fp4hdxha4fbs8)" rx="79.2901" ry="18.258" style="stroke: #A80036; stroke-width: 1.5;"/><text fill="#000000" font-family="sans-serif" font-size="14" lengthAdjust="spacingAndGlyphs" textLength="129" x="1704.2901" y="397.9065">Transport success</text><path d="M1059,473 L1059,498.1328 A0,0 0 0 0 1059,498.1328 L1161,498.1328 A0,0 0 0 0 1161,498.1328 L1161,483 L1151,473 L1114,473 L1110,408.2814 L1106,473 L1059,473 A0,0 0 0 0 1059,473 " fill="#FBFB77" filter="url(#fp4hdxha4fbs8)" style="stroke: #A80036; stroke-width: 1.0;"/><path d="M1151,473 L1151,483 L1161,483 L1151,473 " fill="#FBFB77" style="stroke: #A80036; stroke-width: 1.0;"/><text fill="#000000" font-family="sans-serif" font-size="13" lengthAdjust="spacingAndGlyphs" textLength="81" x="1065" y="490.0669">staus: Alarm</text><path d="M1477,473 L1477,498.1328 A0,0 0 0 0 1477,498.1328 L1559,498.1328 A0,0 0 0 0 1559,498.1328 L1559,483 L1549,473 L1522,473 L1518,410.3742 L1514,473 L1477,473 A0,0 0 0 0 1477,473 " fill="#FBFB77" filter="url(#fp4hdxha4fbs8)" style="stroke: #A80036; stroke-width: 1.0;"/><path d="M1549,473 L1549,483 L1559,483 L1549,473 " fill="#FBFB77" style="stroke: #A80036; stroke-width: 1.0;"/><text fill="#000000" font-family="sans-serif" font-size="13" lengthAdjust="spacingAndGlyphs" textLength="61" x="1483" y="490.0669">staus: fail</text><path d="M1711.5,473 L1711.5,498.1328 A0,0 0 0 0 1711.5,498.1328 L1826.5,498.1328 A0,0 0 0 0 1826.5,498.1328 L1826.5,483 L1816.5,473 L1773,473 L1769,412.1176 L1765,473 L1711.5,473 A0,0 0 0 0 1711.5,473 " fill="#FBFB77" filter="url(#fp4hdxha4fbs8)" style="stroke: #A80036; stroke-width: 1.0;"/><path d="M1816.5,473 L1816.5,483 L1826.5,483 L1816.5,473 " fill="#FBFB77" style="stroke: #A80036; stroke-width: 1.0;"/><text fill="#000000" font-family="sans-serif" font-size="13" lengthAdjust="spacingAndGlyphs" textLength="94" x="1717.5" y="490.0669">staus: success</text><path d="M654.5,381 L654.5,406.1328 A0,0 0 0 0 654.5,406.1328 L769.5,406.1328 A0,0 0 0 0 769.5,406.1328 L769.5,391 L759.5,381 L716,381 L712,290.1106 L708,381 L654.5,381 A0,0 0 0 0 654.5,381 " fill="#FBFB77" filter="url(#fp4hdxha4fbs8)" style="stroke: #A80036; stroke-width: 1.0;"/><path d="M759.5,381 L759.5,391 L769.5,391 L759.5,381 " fill="#FBFB77" style="stroke: #A80036; stroke-width: 1.0;"/><text fill="#000000" font-family="sans-serif" font-size="13" lengthAdjust="spacingAndGlyphs" textLength="94" x="660.5" y="398.0669">staus: Pending</text><path d="M1246.5,381 L1246.5,406.1328 A0,0 0 0 0 1246.5,406.1328 L1363.5,406.1328 A0,0 0 0 0 1363.5,406.1328 L1363.5,391 L1353.5,381 L1307.6739,381 L1295.0834,298.1026 L1299.6739,381 L1246.5,381 A0,0 0 0 0 1246.5,381 " fill="#FBFB77" filter="url(#fp4hdxha4fbs8)" style="stroke: #A80036; stroke-width: 1.0;"/><path d="M1353.5,381 L1353.5,391 L1363.5,391 L1353.5,381 " fill="#FBFB77" style="stroke: #A80036; stroke-width: 1.0;"/><text fill="#000000" font-family="sans-serif" font-size="13" lengthAdjust="spacingAndGlyphs" textLength="96" x="1252.5" y="398.0669">staus: Ongoing</text><!--MD5=[9e15a6808c0d3e6919611510c422654f]
link Sender to initnode--><path d="M56.025,153 C101.1141,153 197.617,153 265.567,153 " fill="none" id="Sender-&gt;initnode" style="stroke: #A80036; stroke-width: 1.0;"/><polygon fill="#A80036" points="270.8182,153,261.8182,149,265.8182,153,261.8182,157,270.8182,153" style="stroke: #A80036; stroke-width: 1.0;"/><text fill="#000000" font-family="sans-serif" font-size="13" lengthAdjust="spacingAndGlyphs" textLength="178" x="74.5" y="146.0669">Initialize the packet account</text><!--MD5=[6c9a9ffeee17b37ec5588653ed2ba74e]
link initnode to node--><path d="M409.0985,153 C467.2565,153 551.0573,153 615.7789,153 " fill="none" id="initnode-&gt;node" style="stroke: #A80036; stroke-width: 1.0;"/><polygon fill="#A80036" points="620.7977,153,611.7977,149,615.7977,153,611.7977,157,620.7977,153" style="stroke: #A80036; stroke-width: 1.0;"/><text fill="#000000" font-family="sans-serif" font-size="13" lengthAdjust="spacingAndGlyphs" textLength="175" x="427.5" y="146.0669">Register packet transaction</text><!--MD5=[2bdfbc614a4a48432b477ce2d12ebf43]
link node to Carrier--><path d="M803.2719,153 C848.61,153 900.1787,153 931.1238,153 " fill="none" id="node-&gt;Carrier" style="stroke: #A80036; stroke-width: 1.0;"/><polygon fill="#A80036" points="936.2822,153,927.2822,149,931.2822,153,927.2822,157,936.2822,153" style="stroke: #A80036; stroke-width: 1.0;"/><text fill="#000000" font-family="sans-serif" font-size="13" lengthAdjust="spacingAndGlyphs" textLength="97" x="821.25" y="146.0669">gives packet to</text><!--MD5=[3456556a0c5e63b51533dace4ee5e664]
link Carrier to node2--><path d="M981.5721,153 C1022.9629,153 1113.2257,153 1183.7077,153 " fill="none" id="Carrier-&gt;node2" style="stroke: #A80036; stroke-width: 1.0;"/><polygon fill="#A80036" points="1188.7473,153,1179.7473,149,1183.7473,153,1179.7473,157,1188.7473,153" style="stroke: #A80036; stroke-width: 1.0;"/><text fill="#000000" font-family="sans-serif" font-size="13" lengthAdjust="spacingAndGlyphs" textLength="171" x="999.75" y="146.0669">Start transport transaction</text><!--MD5=[9837e141aa2505fb6d059ec1b42970dc]
link node2 to Send Alarm!--><path d="M1188.8871,231.4871 C1162.1901,259.2718 1135.7105,292.5186 1119,328 C1112.2646,342.3012 1110.1714,360.1714 1109.6749,373.6317 " fill="none" id="node2-&gt;Send Alarm!" style="stroke: #A80036; stroke-width: 1.0;"/><polygon fill="#A80036" points="1109.5545,378.7403,1113.7655,369.8371,1109.6724,373.7417,1105.7678,369.6485,1109.5545,378.7403" style="stroke: #A80036; stroke-width: 1.0;"/><text fill="#000000" font-family="sans-serif" font-size="13" lengthAdjust="spacingAndGlyphs" textLength="170" x="1120" y="341.0669">If packet gets manipulated</text><!--MD5=[66655d3f5e7572fcefe702538fbf15a7]
link node2 to Recipient--><path d="M1371.2465,153 C1417.2036,153 1470.4199,153 1505.2896,153 " fill="none" id="node2-&gt;Recipient" style="stroke: #A80036; stroke-width: 1.0;"/><polygon fill="#A80036" points="1510.2982,153,1501.2982,149,1505.2982,153,1501.2982,157,1510.2982,153" style="stroke: #A80036; stroke-width: 1.0;"/><text fill="#000000" font-family="sans-serif" font-size="13" lengthAdjust="spacingAndGlyphs" textLength="103" x="1389.25" y="146.0669">Receives packet</text><!--MD5=[321998272bd1fedd6b1900ce69e4d447]
link Recipient to Transport failed--><path d="M1532.611,194.7054 C1523.9922,233.4344 1513.3875,292.8117 1515,345 C1515.2719,353.7985 1515.8205,363.482 1516.3751,371.8673 " fill="none" id="Recipient-&gt;Transport failed" style="stroke: #A80036; stroke-width: 1.0;"/><polygon fill="#A80036" points="1516.7188,376.9011,1520.0965,367.6495,1516.3782,371.9127,1512.1151,368.1945,1516.7188,376.9011" style="stroke: #A80036; stroke-width: 1.0;"/><text fill="#000000" font-family="sans-serif" font-size="13" lengthAdjust="spacingAndGlyphs" textLength="209" x="1516" y="341.0669">Recipient reports failed transport</text><!--MD5=[af84d43c12364718849d3c23365d14f9]
link Recipient to Transport success--><path d="M1575.7355,178.7607 C1615.2964,210.9278 1682.4608,268.946 1730,328 C1740.5697,341.1298 1750.2752,357.407 1757.3604,370.4503 " fill="none" id="Recipient-&gt;Transport success" style="stroke: #A80036; stroke-width: 1.0;"/><polygon fill="#A80036" points="1759.8489,375.0976,1759.1264,365.2753,1757.4885,370.6898,1752.074,369.0519,1759.8489,375.0976" style="stroke: #A80036; stroke-width: 1.0;"/><text fill="#000000" font-family="sans-serif" font-size="13" lengthAdjust="spacingAndGlyphs" textLength="232" x="1744" y="341.0669">Recipient reports successful transfer</text><!--MD5=[9c0734444c95592a4fcc7ca917144b0f]
@startuml
actor Sender
actor Recipient
actor Carrier

node initnode [
<b>Packet
- - - -
Account
  ....
  ID
  
- - - -
IoT
....
Lightsensor
Raspberry Pi
]


node node [
<b>Packet
- - - -
Account
  ....
  ID
  Sender
  Recipient
  minTrust
  Security
  Postage
  
- - - -
IoT
....
Lightsensor
Raspberry Pi
Secret passphrase
]

node node2 [
<b>Packet
- - - -
Account
  ....
  ID
  Sender
  Recipient
  Carrier
  minTrust
  Security
  Postage
  
- - - -
IoT
....
Lightsensor
Raspberry Pi
Secret passphrase
]

Sender -> initnode : Initialize the packet account
initnode -> node : Register packet transaction
node -> Carrier : gives packet to
Carrier -> node2 : Start transport transaction
node2 - -> (Send Alarm!) : If packet gets manipulated
node2 -> Recipient : Receives packet
Recipient - -> (Transport failed) : Recipient reports failed transport
Recipient - -> (Transport success) : Recipient reports successful transfer

note bottom of (Send Alarm!)
  staus: Alarm
end note

note bottom of (Transport failed)
  staus: fail
end note

note bottom of (Transport success)
  staus: success
end note

note bottom of node
  staus: Pending
end note

note bottom of node2
  staus: Ongoing
end note
@enduml

PlantUML version 1.2019.10(Fri Sep 13 20:53:03 UTC 2019)
(GPL source distribution)
Java Runtime: OpenJDK Runtime Environment
JVM: OpenJDK 64-Bit Server VM
Java Version: 1.8.0_222-heroku-b10
Operating System: Linux
Default Encoding: UTF-8
Language: en
Country: US
--></g></svg>