<svg width="86" height="35" viewBox="0 0 86 35" xmlns="http://www.w3.org/2000/svg"><path d="M11.125 34.923c-.025.026-.074.051-.099.077H8.262c-.05 0-.074-.026-.099-.051L.02 25.429a.17.17 0 0 1 0-.154L10.162 7.159c.05-.077.173-.077.222 0l2.839 5.08c.024.026.024.078 0 .129L6.36 24.608c-.024.051 0 .102.025.154l4.097 4.772a.184.184 0 0 0 .099.052h4.837c.124 0 .173.128.099.205l-4.393 5.132zM14.135.077c.05-.103.174-.103.198 0l14.142 25.147c.025.05 0 .102-.025.154l-8.144 9.52a.184.184 0 0 1-.099.05h-6.614c-.124 0-.173-.128-.099-.205l4.418-5.183 4.146-4.824c.05-.051.05-.103.025-.154l-7.849-14.01-2.961-5.286c-.025-.026-.025-.077 0-.128L14.136.077zm26.532 27.764c0 .077.074.128.124.128h7.058c.074 0 .124.052.124.129V33.1c0 .077-.05.128-.124.128H35.756c-.074 0-.124-.05-.124-.128V17.09c0-.025 0-.05.025-.077l4.788-5.568c.074-.102.222-.051.222.077v16.32zm14.266 5.26c0 .051-.05.128-.124.128h-4.788c-.074 0-.123-.05-.123-.128v-9.725c0-.026 0-.051.024-.077l4.788-5.568c.075-.103.223-.051.223.077V33.1zm25.914-7.672l5.134 7.595c.049.077 0 .205-.1.205h-5.33a.184.184 0 0 1-.099-.05L76.43 26.89c-.074-.102-.222-.05-.222.077v6.134c0 .077-.05.128-.123.128h-4.788c-.074 0-.124-.05-.124-.128V17.064c0-.026 0-.052.025-.077l4.788-5.568c.074-.103.222-.052.222.077v12.06c0 .128.148.18.222.077l3.628-6.107c.025-.026.05-.052.099-.052h5.504c.099 0 .148.129.099.206l-4.912 7.595a.17.17 0 0 0 0 .154zm-17.795 8.108c-3.257 0-5.405-1.129-6.515-3.464-.05-.077-.025-.154.05-.18l3.923-2.052c.074-.026.148 0 .173.077.42 1.026 1.234 1.54 2.37 1.54 1.233 0 1.48-.54 1.48-.976 0-.667-.913-.923-2.196-1.257-2.197-.59-5.208-1.386-5.208-4.901 0-2.566 1.851-5.158 5.923-5.132 2.814 0 4.838 1.13 5.998 3.336.05.077.025.154-.05.18l-3.8 1.77c-.05.026-.124 0-.148-.051-.445-.796-1.086-1.206-1.876-1.206-.765 0-1.234.333-1.234.872 0 .693.987.924 2.221 1.232 2.246.539 5.306 1.257 5.306 5.055 0 3.797-3.307 5.157-6.417 5.157z" fill="#FFF"/></svg>