<svg id="Layer_1" data-name="Layer 1" xmlns="http://www.w3.org/2000/svg" viewBox="0 0 800 200"><defs><style>.cls-1{fill:#4070f4;}</style></defs><title>LiskBills Logo</title><path class="cls-1" d="M265.91,127.55V45.06a.64.64,0,0,0-1.16-.39L239.58,72.82a.48.48,0,0,0-.13.39v80.94a.61.61,0,0,0,.65.64h63.56a.61.61,0,0,0,.65-.64v-25.3a.61.61,0,0,0-.65-.65h-37.1A.7.7,0,0,1,265.91,127.55Z"/><path class="cls-1" d="M340.89,154.15V76.84a.64.64,0,0,0-1.17-.39L314.55,104.6a.47.47,0,0,0-.13.38v49.17a.61.61,0,0,0,.65.64h25.17A.69.69,0,0,0,340.89,154.15Z"/><path class="cls-1" d="M477.08,115.36a.83.83,0,0,1,0-.78L502.9,76.19a.68.68,0,0,0-.52-1H473.45a.68.68,0,0,0-.52.26l-19.06,30.87a.64.64,0,0,1-1.17-.39v-61a.64.64,0,0,0-1.17-.39L426.37,72.69a.48.48,0,0,0-.13.39v81.07a.61.61,0,0,0,.65.64h25.16a.61.61,0,0,0,.65-.64v-31a.64.64,0,0,1,1.17-.38L475,154.53a1,1,0,0,0,.52.26h28a.67.67,0,0,0,.51-1Z"/><path class="cls-1" d="M383.56,156.35c16.35,0,33.73-6.87,33.73-26.07s-16.09-22.83-27.89-25.55c-6.49-1.56-11.68-2.73-11.68-6.23,0-2.72,2.47-4.41,6.49-4.41s7.52,2.07,9.86,6.1a.63.63,0,0,0,.78.25l20-9a.55.55,0,0,0,.26-.9C409,79.43,398.35,73.72,383.56,73.72c-21.4-.13-31.13,13-31.13,26,0,17.77,15.83,21.79,27.37,24.77,6.74,1.69,11.54,3,11.54,6.36,0,2.2-1.29,4.93-7.78,4.93-6,0-10.25-2.6-12.45-7.79a.68.68,0,0,0-.91-.39l-20.62,10.38a.56.56,0,0,0-.26.91C355.15,150.64,366.44,156.35,383.56,156.35Z"/><path class="cls-1" d="M594.11,126.32a28.18,28.18,0,0,1-28.28,28.28H521.12V51h41.31A27.27,27.27,0,0,1,589.67,78.2a25.26,25.26,0,0,1-13.33,22.65A27.17,27.17,0,0,1,594.11,126.32ZM529,58.36V98h33.46a19.85,19.85,0,0,0,0-39.68Zm57.29,68a20.66,20.66,0,0,0-20.43-20.88H529v41.75h36.86A20.66,20.66,0,0,0,586.26,126.32Z"/><path class="cls-1" d="M607.44,56.73a5.92,5.92,0,1,1,5.92,5.92A5.91,5.91,0,0,1,607.44,56.73Zm2.22,23.84h7.4v74h-7.4Z"/><path class="cls-1" d="M637.64,46.51H645V154.6h-7.4Z"/><path class="cls-1" d="M665.62,46.51H673V154.6h-7.4Z"/><path class="cls-1" d="M743.5,135.2c0,12.14-10.66,21-26.5,21-14.81,0-24.58-6.95-28.13-16.43l6.36-3.7c2.67,8,10.66,13,21.77,13,10.36,0,19.1-4.59,19.1-13.92,0-20.14-44.86-8.59-44.86-35.24,0-11.69,10.06-21,25.16-21,12,0,21.18,5.77,25.18,14.8l-6.22,3.56c-3.11-7.7-10.81-11.25-19-11.25-9.62,0-17.76,5-17.76,13.91C698.64,119.8,743.5,108.1,743.5,135.2Z"/><path class="cls-1" d="M39.16,160.69c2.14,9.3,9.23,16.76,19.21,16.76h87.16a29.08,29.08,0,0,1-8.1-16.76Z"/><path class="cls-1" d="M82.52,22.62a17.54,17.54,0,0,0-17.6,17.59V156.34h77.85c.17-.4.33-.37.33,0h-.33a9.8,9.8,0,0,0-.43,3.52,17.6,17.6,0,0,0,35.19,0V40.21A24.51,24.51,0,0,1,185,22.62ZM113.36,121h-4.61a.25.25,0,0,1-.17-.08L95,105.61a.28.28,0,0,1,0-.25l16.93-29.09a.24.24,0,0,1,.37,0L117,84.43a.2.2,0,0,1,0,.21l-11.45,19.65a.28.28,0,0,0,0,.25l6.84,7.66a.33.33,0,0,0,.16.09h8.08c.2,0,.29.2.16.32l-7.33,8.25S113.4,120.94,113.36,121Zm29.09-15.45-13.59,15.28a.31.31,0,0,1-.17.09h-11a.2.2,0,0,1-.17-.33l7.38-8.33,6.92-7.74a.2.2,0,0,0,0-.25l-13.1-22.5-4.94-8.48a.16.16,0,0,1,0-.21l4.78-8.16c.08-.16.28-.16.32,0l23.61,40.38C142.54,105.36,142.49,105.45,142.45,105.53Z"/></svg>